<?xml version="1.0" encoding="UTF-8" standalone="no"?>
<svg
   xmlns:dc="http://purl.org/dc/elements/1.1/"
   xmlns:cc="http://creativecommons.org/ns#"
   xmlns:rdf="http://www.w3.org/1999/02/22-rdf-syntax-ns#"
   xmlns:svg="http://www.w3.org/2000/svg"
   xmlns="http://www.w3.org/2000/svg"
   xmlns:sodipodi="http://sodipodi.sourceforge.net/DTD/sodipodi-0.dtd"
   xmlns:inkscape="http://www.inkscape.org/namespaces/inkscape"
   width="30"
   height="30"
   version="1.1"
   id="svg4158"
   inkscape:version="0.91 r13725"
   sodipodi:docname="SLTFunctionality.svg">
  <metadata
     id="metadata4170">
    <rdf:RDF>
      <cc:Work
         rdf:about="">
        <dc:format>image/svg+xml</dc:format>
        <dc:type
           rdf:resource="http://purl.org/dc/dcmitype/StillImage" />
        <dc:title />
      </cc:Work>
    </rdf:RDF>
  </metadata>
  <defs
     id="defs4168">
    <clipPath
       id="cp0">
      <path
         inkscape:connector-curvature="0"
         transform="matrix(2.7777777,0,0,-2.7777777,0,400.4833)"
         d="m 0,144.174 147.885,0 L 147.885,0 0,0 Z"
         id="path4142" />
    </clipPath>
  </defs>
  <sodipodi:namedview
     pagecolor="#ffffff"
     bordercolor="#666666"
     borderopacity="1"
     objecttolerance="10"
     gridtolerance="10"
     guidetolerance="10"
     inkscape:pageopacity="0"
     inkscape:pageshadow="2"
     inkscape:window-width="2048"
     inkscape:window-height="1089"
     id="namedview4166"
     showgrid="false"
     inkscape:zoom="11.125147"
     inkscape:cx="27.252169"
     inkscape:cy="12.317466"
     inkscape:window-x="2040"
     inkscape:window-y="-8"
     inkscape:window-maximized="1"
     inkscape:current-layer="svg4158" />
  <g
     transform="matrix(0.06764854,0,0,0.06764854,1.2321594,0.9470034)"
     style="enable-background:new"
     id="g4138">
    <g
       id="Layer-1"
       data-name="Layer 1">
      <clipPath
         id="clipPath4724">
        <path
           inkscape:connector-curvature="0"
           transform="matrix(2.7777777,0,0,-2.7777777,0,400.4833)"
           d="m 0,144.174 147.885,0 L 147.885,0 0,0 Z"
           id="path4726" />
      </clipPath>
      <g
         clip-path="url(#cp0)"
         id="g4144">
        <path
           inkscape:connector-curvature="0"
           transform="matrix(2.7777777,0,0,-2.7777777,295.79084,109.0911)"
           d="m 0,0 c 5.117,0 9.75,-2.074 13.104,-5.426 l 13.101,13.1 C 19.498,14.381 10.234,18.527 0,18.527 c -20.466,0 -37.057,-16.59 -37.057,-37.054 l 0,-18.528 7.674,-7.675 c -2.278,-2.276 -4.87,-4.229 -7.674,-5.856 l 0,-38.965 18.528,0 0,18.528 c 0,10.232 8.296,18.529 18.529,18.529 l 8.031,0 0,15.439 -8.031,0 c -10.233,0 -18.529,8.295 -18.529,18.528 C -18.529,-8.295 -10.233,0 0,0"
           id="path4148" />
        <path
           inkscape:connector-curvature="0"
           transform="matrix(2.7777777,0,0,-2.7777777,177.78278,196.94915)"
           d="m 0,0 c -3.354,-3.352 -7.986,-5.426 -13.102,-5.426 -10.231,0 -18.527,8.295 -18.527,18.528 0,10.232 8.296,18.527 18.527,18.527 5.116,0 9.748,-2.074 13.102,-5.426 l 13.1,13.1 c -6.705,6.707 -15.967,10.853 -26.202,10.853 -20.465,0 -37.055,-16.59 -37.055,-37.054 0,-20.465 16.59,-37.057 37.055,-37.057 6.758,0 13.073,1.84 18.528,4.998 2.804,1.627 5.396,3.58 7.674,5.855 l -7.674,7.676 z"
           id="path4150" />
      </g>
    </g>
  </g>
</svg>
