<?xml version="1.0" encoding="UTF-8" standalone="no"?>
<!DOCTYPE svg PUBLIC "-//W3C//DTD SVG 1.1//EN" "http://www.w3.org/Graphics/SVG/1.1/DTD/svg11.dtd">
<svg xmlns="http://www.w3.org/2000/svg" xmlns:xlink="http://www.w3.org/1999/xlink" version="1.1" width="1215.0722pt" height="510.9639pt" viewBox="0 0 1215.0722 510.9639">
<g enable-background="new">
<path transform="matrix(2.7777777,0,0,-2.7777777,85.880558,222.56389)" stroke-width=".3985" stroke-linecap="butt" stroke-miterlimit="10" stroke-linejoin="miter" fill="none" stroke="#000000" d="M 27.39761 2.21173 C 27.39761 17.3432 15.13147 29.60934 0 29.60934 C -15.13147 29.60934 -27.39761 17.3432 -27.39761 2.21173 C -27.39761 -12.91972 -15.13147 -25.18587 0 -25.18587 C 15.13147 -25.18587 27.39761 -12.91972 27.39761 2.21173 Z M 0 2.21173 "/>
<symbol id="font_0_41">
<path d="M .08900001 0 L .08900001 .694 L 0 .694 L 0 0 L .08900001 0 Z "/>
</symbol>
<symbol id="font_0_68">
<path d="M .60800006 .623 L .60800006 .688 L 0 .688 L 0 .623 L .134 .623 C .14600002 .623 .158 .624 .17000002 .624 L .26 .624 L .26 0 L .349 0 L .349 .624 L .43800003 .624 C .45000003 .624 .462 .623 .47400005 .623 L .60800006 .623 Z "/>
</symbol>
<use xlink:href="#font_0_41" transform="matrix(27.673998,0,0,-27.673998,71.36524,222.56385)"/>
<use xlink:href="#font_0_68" transform="matrix(27.673998,0,0,-27.673998,77.453517,222.56385)"/>
<use xlink:href="#font_0_41" transform="matrix(27.673998,0,0,-27.673998,97.9046,222.56385)"/>
<path transform="matrix(2.7777777,0,0,-2.7777777,294.54167,222.56389)" stroke-width=".3985" stroke-linecap="butt" stroke-miterlimit="10" stroke-linejoin="miter" fill="none" stroke="#000000" d="M 27.39761 2.21173 C 27.39761 17.3432 15.13147 29.60934 0 29.60934 C -15.13147 29.60934 -27.39761 17.3432 -27.39761 2.21173 C -27.39761 -12.91972 -15.13147 -25.18587 0 -25.18587 C 15.13147 -25.18587 27.39761 -12.91972 27.39761 2.21173 Z M 0 2.21173 "/>
<symbol id="font_0_61">
<path d="M .455 .21100001 C .455 .27600003 .42400003 .32400004 .402 .34800003 C .35500003 .39800004 .32200004 .40700004 .23000002 .43000005 C .172 .44400005 .156 .44800005 .126 .47400005 C .119 .48000006 .091000009 .509 .091000009 .55300006 C .091000009 .61200007 .14500001 .67200008 .23700002 .67200008 C .321 .67200008 .36900003 .63900008 .40600003 .60800006 L .42100004 .688 C .36600004 .7210001 .31100003 .73800006 .238 .73800006 C .09900001 .73800006 .011999998 .64000007 .011999998 .54100009 C .011999998 .49800004 .025999997 .45600004 .066 .41400004 C .10800001 .36900003 .15200001 .35700003 .21100003 .34300003 C .296 .32200004 .30600003 .31900005 .33400003 .29400004 C .35400004 .27700005 .37600003 .24400002 .37600003 .201 C .37600003 .135 .321 .069000009 .23000002 .069000009 C .18900001 .069000009 .09900001 .079 .015000001 .15 L 0 .069000009 C .088 .014000001 .16800002 0 .231 0 C .363 0 .455 .101 .455 .21100001 Z "/>
</symbol>
<symbol id="font_0_69">
<path d="M .31300003 .038000004 L .29700003 .097 C .27100004 .076000008 .23900002 .064 .20700002 .064 C .17000002 .064 .15600002 .094000007 .15600002 .14700002 L .15600002 .397 L .29700003 .397 L .29700003 .45500005 L .15600002 .45500005 L .15600002 .582 L .087000008 .582 L .087000008 .45500005 L 0 .45500005 L 0 .397 L .08400001 .397 L .08400001 .13000001 C .08400001 .07000001 .098000008 0 .167 0 C .23700002 0 .28800003 .025000003 .31300003 .038000004 Z "/>
</symbol>
<symbol id="font_0_1c">
<path d="M .35500003 .011000001 L .35500003 .3 C .35500003 .40200005 .28200004 .47200004 .19000001 .47200004 C .125 .47200004 .08 .45600004 .033000005 .42900003 L .039 .36300005 C .091000009 .40000005 .141 .41300003 .19000001 .41300003 C .237 .41300003 .27700005 .37300004 .27700005 .29900003 L .27700005 .256 C .127 .254 0 .21200001 0 .124000009 C 0 .081 .026999999 0 .11400001 0 C .128 0 .22200002 .0020000004 .28000004 .047000003 L .28000004 .011000001 L .35500003 .011000001 M .27700005 .143 C .27700005 .124000009 .27700005 .09900001 .24300002 .080000009 C .214 .062000004 .176 .061 .165 .061 C .117 .061 .072 .08400001 .072 .126 C .072 .19600001 .23400001 .20300001 .27700005 .20500002 L .27700005 .143 Z "/>
</symbol>
<symbol id="font_0_60">
<path d="M .24500002 .388 L .24500002 .455 C .156 .45400004 .10100001 .40500004 .07000001 .35900004 L .07000001 .45000003 L 0 .45000003 L 0 0 L .075 0 L .075 .21400002 C .075 .314 .14700002 .386 .24500002 .388 Z "/>
</symbol>
<symbol id="font_0_42">
<path d="M .081 0 L .081 .44400005 L .0059999974 .44400005 L .0059999974 0 L .081 0 M .089 .56600007 L .089 .65500006 L 0 .65500006 L 0 .56600007 L .089 .56600007 Z "/>
</symbol>
<symbol id="font_0_48">
<path d="M .075 0 L .075 .694 L 0 .694 L 0 0 L .075 0 Z "/>
</symbol>
<use xlink:href="#font_0_61" transform="matrix(27.673998,0,0,-27.673998,236.19264,223.17267)"/>
<use xlink:href="#font_0_69" transform="matrix(27.673998,0,0,-27.673998,250.88755,222.86826)"/>
<use xlink:href="#font_0_1c" transform="matrix(27.673998,0,0,-27.673998,261.8464,222.86826)"/>
<use xlink:href="#font_0_60" transform="matrix(27.673998,0,0,-27.673998,275.15763,222.56385)"/>
<use xlink:href="#font_0_69" transform="matrix(27.673998,0,0,-27.673998,282.8787,222.86826)"/>
<use xlink:href="#font_0_68" transform="matrix(27.673998,0,0,-27.673998,302.5549,222.56385)"/>
<use xlink:href="#font_0_60" transform="matrix(27.673998,0,0,-27.673998,320.37696,222.56385)"/>
<use xlink:href="#font_0_42" transform="matrix(27.673998,0,0,-27.673998,329.64778,222.56385)"/>
<use xlink:href="#font_0_1c" transform="matrix(27.673998,0,0,-27.673998,335.6807,222.86826)"/>
<use xlink:href="#font_0_48" transform="matrix(27.673998,0,0,-27.673998,349.7391,222.56385)"/>
<path transform="matrix(2.7777777,0,0,-2.7777777,503.2055,222.56389)" stroke-width=".3985" stroke-linecap="butt" stroke-miterlimit="10" stroke-linejoin="miter" fill="none" stroke="#000000" d="M 27.39761 2.21173 C 27.39761 17.3432 15.13147 29.60934 0 29.60934 C -15.13147 29.60934 -27.39761 17.3432 -27.39761 2.21173 C -27.39761 -12.91972 -15.13147 -25.18587 0 -25.18587 C 15.13147 -25.18587 27.39761 -12.91972 27.39761 2.21173 Z M 0 2.21173 "/>
<symbol id="font_0_36">
<path d="M .432 .62600007 L .432 .69100007 L 0 .69100007 L 0 0 L .08900001 0 L .08900001 .31500004 L .391 .31500004 L .391 .37600003 L .08900001 .37600003 L .08900001 .62700006 L .22 .62700006 C .232 .62700006 .24400002 .62600007 .256 .62600007 L .432 .62600007 Z "/>
</symbol>
<use xlink:href="#font_0_36" transform="matrix(27.673998,0,0,-27.673998,488.50965,222.56385)"/>
<use xlink:href="#font_0_68" transform="matrix(27.673998,0,0,-27.673998,502.6511,222.56385)"/>
<path transform="matrix(2.7777777,0,0,-2.7777777,711.8666,222.56389)" stroke-width=".3985" stroke-linecap="butt" stroke-miterlimit="10" stroke-linejoin="miter" fill="none" stroke="#000000" d="M 27.39761 2.21173 C 27.39761 17.3432 15.13147 29.60934 0 29.60934 C -15.13147 29.60934 -27.39761 17.3432 -27.39761 2.21173 C -27.39761 -12.91972 -15.13147 -25.18587 0 -25.18587 C 15.13147 -25.18587 27.39761 -12.91972 27.39761 2.21173 Z M 0 2.21173 "/>
<symbol id="font_0_4b">
<path d="M .6320001 0 L .6320001 .298 C .6320001 .365 .61600008 .455 .49500004 .455 C .43500004 .455 .38300003 .42700003 .34600003 .37300004 C .32000003 .44900004 .25000004 .455 .21800003 .455 C .14600002 .455 .09900001 .41400004 .07200001 .37800003 L .07200001 .45000003 L 0 .45000003 L 0 0 L .07800001 0 L .07800001 .245 C .07800001 .31300003 .105000007 .39400003 .17900002 .39400003 C .272 .39400003 .277 .32900004 .277 .291 L .277 0 L .35500003 0 L .35500003 .245 C .35500003 .31300003 .38200004 .39400003 .456 .39400003 C .549 .39400003 .554 .32900004 .554 .291 L .554 0 L .6320001 0 Z "/>
</symbol>
<symbol id="font_0_6d">
<path d="M .35400004 .011000001 L .35400004 .45500005 L .27600003 .45500005 L .27600003 .16500002 C .27600003 .09 .22000003 .055000005 .15600002 .055000005 C .08500001 .055000005 .07800001 .081 .07800001 .124000009 L .07800001 .45500005 L 0 .45500005 L 0 .120000008 C 0 .048 .023000002 0 .106000009 0 C .15900001 0 .23000002 .016 .279 .059 L .279 .011000001 L .35400004 .011000001 Z "/>
</symbol>
<symbol id="font_0_62">
<path d="M .33200003 .13900002 C .33200003 .19400002 .29500003 .22800002 .293 .23100002 C .254 .26600004 .22700003 .272 .17700002 .28100003 C .12200001 .29200004 .076000008 .30200003 .076000008 .351 C .076000008 .41300003 .14800002 .41300003 .16100002 .41300003 C .19300002 .41300003 .24600002 .40900005 .30300004 .37500004 L .31500004 .44000004 C .263 .46400003 .222 .47200004 .17100002 .47200004 C .14600002 .47200004 .004999999 .47200004 .004999999 .34100003 C .004999999 .29200004 .034 .26000003 .059000005 .24100001 C .09 .21900001 .112 .21500002 .16700001 .20400001 C .20300001 .19700001 .261 .18500002 .261 .13200002 C .261 .063 .18200001 .063 .16700001 .063 C .08600001 .063 .030000002 .1 .012000002 .112 L 0 .044 C .032 .028 .087 0 .16800002 0 C .18600002 0 .24100003 0 .284 .032 C .31500004 .056 .33200003 .096 .33200003 .13900002 Z "/>
</symbol>
<use xlink:href="#font_0_61" transform="matrix(27.673998,0,0,-27.673998,663.187,223.17267)"/>
<use xlink:href="#font_0_69" transform="matrix(27.673998,0,0,-27.673998,677.88198,222.86826)"/>
<use xlink:href="#font_0_42" transform="matrix(27.673998,0,0,-27.673998,689.422,222.56385)"/>
<use xlink:href="#font_0_4b" transform="matrix(27.673998,0,0,-27.673998,696.2021,222.56385)"/>
<use xlink:href="#font_0_6d" transform="matrix(27.673998,0,0,-27.673998,718.17526,222.86826)"/>
<use xlink:href="#font_0_48" transform="matrix(27.673998,0,0,-27.673998,732.4827,222.56385)"/>
<use xlink:href="#font_0_6d" transform="matrix(27.673998,0,0,-27.673998,739.0968,222.86826)"/>
<use xlink:href="#font_0_62" transform="matrix(27.673998,0,0,-27.673998,751.9376,222.86826)"/>
<path transform="matrix(2.7777777,0,0,-2.7777777,920.5276,222.56389)" stroke-width=".3985" stroke-linecap="butt" stroke-miterlimit="10" stroke-linejoin="miter" fill="none" stroke="#000000" d="M 27.39761 2.21173 C 27.39761 17.3432 15.13147 29.60934 0 29.60934 C -15.13147 29.60934 -27.39761 17.3432 -27.39761 2.21173 C -27.39761 -12.91972 -15.13147 -25.18587 0 -25.18587 C 15.13147 -25.18587 27.39761 -12.91972 27.39761 2.21173 Z M 0 2.21173 "/>
<symbol id="font_0_2a">
<path d="M .521 .056 L .51500007 .12500002 C .48600007 .105000007 .45700003 .086 .42300005 .076000008 C .39100004 .065000008 .356 .064 .32200004 .064 C .25700004 .064 .198 .09900001 .157 .15000002 C .111 .20900002 .089 .28300003 .089 .358 C .089 .43300004 .111 .508 .157 .56700006 C .198 .61800006 .25700004 .653 .32200004 .653 C .352 .653 .38300003 .65000006 .412 .64100006 C .44200004 .632 .47000004 .617 .49600006 .599 L .51000007 .681 C .48000003 .693 .44900007 .703 .417 .709 C .38600005 .71500006 .35400004 .717 .32200004 .717 C .23400001 .717 .15300001 .677 .09400001 .612 C .032000007 .542 0 .45100004 0 .358 C 0 .26500003 .032000007 .17400001 .09400001 .105000007 C .15300001 .040000004 .23400001 0 .32200004 0 C .357 0 .39200003 .0010000002 .426 .011000001 C .46000005 .020000002 .49100007 .038000004 .521 .056 Z "/>
</symbol>
<symbol id="font_0_3f">
<path d="M .35400004 0 L .35400004 .298 C .35400004 .36400003 .33900003 .455 .21700001 .455 C .15500002 .455 .10700001 .42400003 .075 .38300003 L .075 .694 L 0 .694 L 0 0 L .07800001 0 L .07800001 .245 C .07800001 .31100003 .103000018 .39400003 .17900002 .39400003 C .275 .39400003 .27600003 .323 .27600003 .291 L .27600003 0 L .35400004 0 Z "/>
</symbol>
<symbol id="font_0_51">
<path d="M .439 .23100002 C .439 .365 .33900003 .47200004 .22 .47200004 C .097 .47200004 0 .36200003 0 .23100002 C 0 .09900001 .102 0 .21900001 0 C .33900003 0 .439 .101 .439 .23100002 M .36100004 .24100001 C .36100004 .123 .293 .064 .21900001 .064 C .15 .064 .078 .120000008 .078 .24100001 C .078 .36200003 .15400002 .411 .21900001 .411 C .289 .411 .36100004 .35900004 .36100004 .24100001 Z "/>
</symbol>
<symbol id="font_0_2b">
<path d="M .379 .051000004 L .373 .11800001 C .322 .078 .268 .064 .21700002 .064 C .134 .064 .07800001 .136 .07800001 .23400001 C .07800001 .31200005 .11500001 .40800003 .221 .40800003 C .273 .40800003 .307 .40000005 .36200003 .36400003 L .374 .42900003 C .315 .46300004 .281 .47200004 .22000002 .47200004 C .081 .47200004 0 .351 0 .23300003 C 0 .109000008 .091000009 0 .216 0 C .27 0 .32500003 .014 .379 .051000004 Z "/>
</symbol>
<symbol id="font_0_32">
<path d="M .37900005 .23000002 C .37900005 .26400004 .37800003 .33900003 .33900003 .39900003 C .298 .46100004 .23700002 .47200004 .20100002 .47200004 C .09 .47200004 0 .36600004 0 .23700002 C 0 .105000007 .096000019 0 .21600002 0 C .279 0 .33600004 .024 .37500004 .052 L .36900003 .117000009 C .30600003 .065000008 .24000001 .061 .21700001 .061 C .13700001 .061 .073 .13200002 .07000001 .23000002 L .37900005 .23000002 M .32200004 .28500004 L .075 .28500004 C .091000009 .36100004 .14400001 .411 .20100002 .411 C .25300003 .411 .30900003 .37700004 .32200004 .28500004 Z "/>
</symbol>
<use xlink:href="#font_0_2a" transform="matrix(27.673998,0,0,-27.673998,883.8457,222.86826)"/>
<use xlink:href="#font_0_3f" transform="matrix(27.673998,0,0,-27.673998,901.9445,222.56385)"/>
<use xlink:href="#font_0_51" transform="matrix(27.673998,0,0,-27.673998,914.8406,222.86826)"/>
<use xlink:href="#font_0_42" transform="matrix(27.673998,0,0,-27.673998,929.923,222.56385)"/>
<use xlink:href="#font_0_2b" transform="matrix(27.673998,0,0,-27.673998,935.45779,222.86826)"/>
<use xlink:href="#font_0_32" transform="matrix(27.673998,0,0,-27.673998,947.7173,222.86826)"/>
<path transform="matrix(2.7777777,0,0,-2.7777777,1129.1915,222.56389)" stroke-width=".3985" stroke-linecap="butt" stroke-miterlimit="10" stroke-linejoin="miter" fill="none" stroke="#000000" d="M 27.39761 2.21173 C 27.39761 17.3432 15.13147 29.60934 0 29.60934 C -15.13147 29.60934 -27.39761 17.3432 -27.39761 2.21173 C -27.39761 -12.91972 -15.13147 -25.18587 0 -25.18587 C 15.13147 -25.18587 27.39761 -12.91972 27.39761 2.21173 Z M 0 2.21173 "/>
<symbol id="font_0_5f">
<path d="M .521 0 L .323 .326 C .426 .356 .49300004 .42700003 .49300004 .508 C .49300004 .60700008 .384 .694 .24100001 .694 L 0 .694 L 0 0 L .08600001 0 L .08600001 .317 L .244 .317 L .43199999 0 L .521 0 M .412 .508 C .412 .437 .34800006 .37800003 .23 .37800003 L .08600001 .37800003 L .08600001 .638 L .23 .638 C .34600003 .638 .412 .57900008 .412 .508 Z "/>
</symbol>
<symbol id="font_0_72">
<path d="M .65400007 .44400005 L .58100005 .44400005 L .517 .23200001 C .50600007 .19600001 .476 .097 .47100003 .054 L .47000004 .054 C .46600003 .085 .441 .17400001 .42400003 .231 L .35900004 .44400005 L .289 .44400005 L .23200001 .256 C .22100002 .22100002 .187 .106000009 .18300002 .055000005 L .18200001 .055000005 C .17700002 .10300001 .14400001 .216 .128 .27100004 L .076000008 .44400005 L 0 .44400005 L .13700001 0 L .216 0 L .27800004 .20600002 C .29200004 .252 .32000003 .351 .323 .388 L .32400004 .388 C .326 .36 .34300003 .291 .356 .24800001 L .42900003 0 L .517 0 L .65400007 .44400005 Z "/>
</symbol>
<symbol id="font_0_2f">
<path d="M .398 .011000001 L .398 .705 L .323 .705 L .323 .411 C .27 .45500005 .214 .46600003 .17700002 .46600003 C .07800001 .46600003 0 .36200003 0 .23300003 C 0 .102000009 .07700001 0 .172 0 C .20500002 0 .264 .009000001 .32 .063 L .32 .011000001 L .398 .011000001 M .32 .15000002 C .32 .136 .319 .11800001 .287 .089 C .264 .069000009 .23900001 .061 .21300002 .061 C .15100001 .061 .07800001 .108 .07800001 .23200003 C .07800001 .36400003 .164 .40500004 .223 .40500004 C .268 .40500004 .298 .38200004 .32 .35000003 L .32 .15000002 Z "/>
</symbol>
<use xlink:href="#font_0_5f" transform="matrix(27.673998,0,0,-27.673998,1089.5482,222.56385)"/>
<use xlink:href="#font_0_32" transform="matrix(27.673998,0,0,-27.673998,1105.7376,222.86826)"/>
<use xlink:href="#font_0_72" transform="matrix(27.673998,0,0,-27.673998,1117.4436,222.56385)"/>
<use xlink:href="#font_0_1c" transform="matrix(27.673998,0,0,-27.673998,1136.6769,222.86826)"/>
<use xlink:href="#font_0_60" transform="matrix(27.673998,0,0,-27.673998,1149.9882,222.56385)"/>
<use xlink:href="#font_0_2f" transform="matrix(27.673998,0,0,-27.673998,1158.1796,222.86826)"/>
<path transform="matrix(2.7777777,0,0,-2.7777777,711.8666,431.22779)" stroke-width=".3985" stroke-linecap="butt" stroke-miterlimit="10" stroke-linejoin="miter" fill="none" stroke="#000000" d="M 27.39761 2.21173 C 27.39761 17.3432 15.13147 29.60934 0 29.60934 C -15.13147 29.60934 -27.39761 17.3432 -27.39761 2.21173 C -27.39761 -12.91972 -15.13147 -25.18587 0 -25.18587 C 15.13147 -25.18587 27.39761 -12.91972 27.39761 2.21173 Z M 0 2.21173 "/>
<symbol id="font_0_1b">
<path d="M .61 0 L .349 .694 L .261 .694 L 0 0 L .074 0 L .15100001 .20400001 L .44200004 .20400001 L .518 0 L .61 0 M .42000003 .26000003 L .172 .26000003 C .22300002 .40300004 .18600002 .298 .23700002 .441 C .25800003 .5 .289 .58500006 .296 .62200006 L .29700003 .62200006 C .29900003 .60800006 .30600003 .583 .32900004 .517 L .42000003 .26000003 Z "/>
</symbol>
<symbol id="font_0_23">
<path d="M .398 .23400001 C .398 .358 .33000005 .46600003 .23600002 .46600003 C .19700001 .46600003 .135 .45600004 .075 .40700004 L .075 .705 L 0 .705 L 0 .011000001 L .07800001 .011000001 L .07800001 .057000005 C .10200001 .035 .14500001 0 .212 0 C .31200005 0 .398 .1 .398 .23400001 M .32 .23400001 C .32 .104 .23600002 .061 .175 .061 C .136 .061 .103 .079 .07800001 .12500002 L .07800001 .34600003 C .09400001 .37000004 .13000001 .40500004 .18500002 .40500004 C .244 .40500004 .32 .36200003 .32 .23400001 Z "/>
</symbol>
<use xlink:href="#font_0_1b" transform="matrix(27.673998,0,0,-27.673998,679.6137,431.22779)"/>
<use xlink:href="#font_0_23" transform="matrix(27.673998,0,0,-27.673998,699.56668,431.5322)"/>
<use xlink:href="#font_0_51" transform="matrix(27.673998,0,0,-27.673998,713.2099,431.5322)"/>
<use xlink:href="#font_0_60" transform="matrix(27.673998,0,0,-27.673998,727.7111,431.22779)"/>
<use xlink:href="#font_0_69" transform="matrix(27.673998,0,0,-27.673998,735.4321,431.5322)"/>
<path transform="matrix(2.7777777,0,0,-2.7777777,607.5361,320.75279)" stroke-width=".3985" stroke-linecap="butt" stroke-miterlimit="10" stroke-linejoin="miter" fill="none" stroke="#000000" d="M -174.00017 61.45885 C -159.27288 86.96848 -197.70458 93.74527 -192.93575 66.69931 "/>
<path transform="matrix(.48230554,2.7355555,2.7355555,-.48230554,71.60343,135.47693)" d="M 1.99252 0 L -1.19551 1.59401 L 0 0 L -1.19551 -1.59401 "/>
<symbol id="font_1_60">
<path d="M .25300003 .38300003 L .25300003 .455 C .181 .45400004 .11500001 .418 .074 .35900004 L .074 .45000003 L 0 .45000003 L 0 0 L .08 0 L .08 .21300002 C .08 .31800003 .162 .38200004 .25300003 .38300003 Z "/>
</symbol>
<symbol id="font_1_32">
<path d="M .39200003 .23000002 C .39200003 .261 .39100004 .337 .35200004 .397 C .31000004 .46000005 .24600002 .47200004 .20800002 .47200004 C .09200001 .47200004 0 .365 0 .23700002 C 0 .105000007 .098000008 0 .22300002 0 C .27100004 0 .32900004 .012000001 .38700003 .049000004 L .381 .11800001 C .31800003 .07300001 .259 .065000008 .224 .065000008 C .14100002 .065000008 .07700001 .13800001 .074 .23000002 L .39200003 .23000002 M .33200003 .28900004 L .08 .28900004 C .096000019 .35300002 .14500001 .40700004 .20800002 .40700004 C .245 .40700004 .31300003 .39000003 .33200003 .28900004 Z "/>
</symbol>
<symbol id="font_1_62">
<path d="M .341 .14000002 C .341 .17500001 .327 .21000003 .292 .24000003 C .258 .26900003 .228 .275 .16600001 .28700004 C .13000001 .29400004 .080000009 .30300004 .080000009 .35000003 C .080000009 .40900005 .15100001 .40900005 .16600001 .40900005 C .23900001 .40900005 .282 .38600005 .311 .37000004 L .324 .44000004 C .262 .46800003 .216 .47200004 .17500001 .47200004 C .15200001 .47200004 .005000001 .47200004 .005000001 .34000004 C .005000001 .29200004 .034 .26200003 .045 .25100003 C .083000008 .21800003 .10900001 .21300002 .17700002 .20000002 C .209 .19400002 .266 .18300002 .266 .13200002 C .266 .067 .18500002 .067 .172 .067 C .113000009 .067 .056 .087000008 .013000002 .117000009 L 0 .044 C .060000004 .012000001 .12100001 0 .172 0 C .237 0 .341 .021000002 .341 .14000002 Z "/>
</symbol>
<symbol id="font_1_69">
<path d="M .323 .037 L .30600003 .1 C .28000004 .080000009 .245 .068 .21400002 .068 C .17500001 .068 .162 .10300001 .162 .15500002 L .162 .39300005 L .30600003 .39300005 L .30600003 .45500005 L .162 .45500005 L .162 .582 L .08800001 .582 L .08800001 .45500005 L 0 .45500005 L 0 .39300005 L .085 .39300005 L .085 .13700001 C .085 .078 .098000008 0 .171 0 C .215 0 .26700003 .009000001 .323 .037 Z "/>
</symbol>
<use xlink:href="#font_1_60" transform="matrix(24.52803,4.324535,4.324535,-24.52803,87.28858,74.76452)"/>
<use xlink:href="#font_1_32" transform="matrix(24.52803,4.324535,4.324535,-24.52803,94.673,76.34466)"/>
<use xlink:href="#font_1_62" transform="matrix(24.52803,4.324535,4.324535,-24.52803,105.735149,78.29503)"/>
<use xlink:href="#font_1_32" transform="matrix(24.52803,4.324535,4.324535,-24.52803,115.546367,80.02483)"/>
<use xlink:href="#font_1_69" transform="matrix(24.52803,4.324535,4.324535,-24.52803,126.36322,81.93196)"/>
<path transform="matrix(2.7777777,0,0,-2.7777777,607.5361,320.75279)" stroke-width=".3985" stroke-linecap="butt" stroke-miterlimit="10" stroke-linejoin="miter" fill="none" stroke="#000000" d="M -160.2013 37.55963 L -142.26828 37.55963 "/>
<path transform="matrix(2.7777777,0,0,-2.7777777,212.34644,216.42049)" d="M 1.99252 0 L -1.19551 1.59401 L 0 0 L -1.19551 -1.59401 "/>
<path transform="matrix(2.7777777,0,0,-2.7777777,607.5361,320.75279)" stroke-width=".3985" stroke-linecap="butt" stroke-miterlimit="10" stroke-linejoin="miter" fill="none" stroke="#000000" d="M -85.08203 37.55963 L -67.14902 37.55963 "/>
<path transform="matrix(2.7777777,0,0,-2.7777777,421.01106,216.42049)" d="M 1.99252 0 L -1.19551 1.59401 L 0 0 L -1.19551 -1.59401 "/>
<path transform="matrix(2.7777777,0,0,-2.7777777,607.5361,320.75279)" stroke-width=".3985" stroke-linecap="butt" stroke-miterlimit="10" stroke-linejoin="miter" fill="none" stroke="#000000" d="M -9.96277 37.55963 L 7.97023 37.55963 "/>
<path transform="matrix(2.7777777,0,0,-2.7777777,629.6756,216.42049)" d="M 1.99252 0 L -1.19551 1.59401 L 0 0 L -1.19551 -1.59401 "/>
<path transform="matrix(2.7777777,0,0,-2.7777777,607.5361,320.75279)" stroke-width=".3985" stroke-linecap="butt" stroke-miterlimit="10" stroke-linejoin="miter" fill="none" stroke="#000000" d="M 65.1565 37.55963 L 83.08951 37.55963 "/>
<path transform="matrix(2.7777777,0,0,-2.7777777,838.3402,216.42049)" d="M 1.99252 0 L -1.19551 1.59401 L 0 0 L -1.19551 -1.59401 "/>
<path transform="matrix(2.7777777,0,0,-2.7777777,607.5361,320.75279)" stroke-width=".3985" stroke-linecap="butt" stroke-miterlimit="10" stroke-linejoin="miter" fill="none" stroke="#000000" d="M 140.27576 37.55963 L 158.20877 37.55963 "/>
<path transform="matrix(2.7777777,0,0,-2.7777777,1047.0049,216.42049)" d="M 1.99252 0 L -1.19551 1.59401 L 0 0 L -1.19551 -1.59401 "/>
<path transform="matrix(2.7777777,0,0,-2.7777777,607.5361,320.75279)" stroke-width=".3985" stroke-linecap="butt" stroke-miterlimit="10" stroke-linejoin="miter" fill="none" stroke="#000000" d="M 163.89894 51.35762 C 53.19312 115.27348 -53.19312 115.27348 -162.17339 52.35385 "/>
<path transform="matrix(-2.4055835,1.3888333,1.3888333,2.4055835,157.05452,175.32543)" d="M 1.99252 0 L -1.19551 1.59401 L 0 0 L -1.19551 -1.59401 "/>
<path transform="matrix(2.7777777,0,0,-2.7777777,607.5361,320.75279)" stroke-width=".3985" stroke-linecap="butt" stroke-miterlimit="10" stroke-linejoin="miter" fill="none" stroke="#000000" d="M -87.99728 25.21902 L 11.09598 -24.32802 "/>
<path transform="matrix(2.4843333,1.2421389,1.2421389,-2.4843333,638.3582,388.33064)" d="M 1.99252 0 L -1.19551 1.59401 L 0 0 L -1.19551 -1.59401 "/>
<symbol id="font_1_4b">
<path d="M .653 0 L .653 .29700003 C .653 .37100003 .633 .455 .5120001 .455 C .428 .455 .381 .404 .35700003 .37300004 C .35000003 .393 .32900004 .455 .22700003 .455 C .14800002 .455 .10000001 .409 .07700001 .379 L .07700001 .45000003 L 0 .45000003 L 0 0 L .083000008 0 L .083000008 .24400002 C .083000008 .31 .10900001 .39000003 .185 .39000003 C .28500004 .39000003 .28500004 .319 .28500004 .29000003 L .28500004 0 L .36800004 0 L .36800004 .24400002 C .36800004 .31 .39400003 .39000003 .47 .39000003 C .57000008 .39000003 .57000008 .319 .57000008 .29000003 L .57000008 0 L .653 0 Z "/>
</symbol>
<symbol id="font_1_42">
<path d="M .087 0 L .087 .44400005 L .0069999995 .44400005 L .0069999995 0 L .087 0 M .096 .563 L .096 .65900006 L 0 .65900006 L 0 .563 L .096 .563 Z "/>
</symbol>
<use xlink:href="#font_1_4b" transform="matrix(22.275477,11.137489,11.137489,-22.275477,488.90983,302.36885)"/>
<use xlink:href="#font_1_42" transform="matrix(22.275477,11.137489,11.137489,-22.275477,506.95298,311.39018)"/>
<use xlink:href="#font_1_62" transform="matrix(22.275477,11.137489,11.137489,-22.275477,511.26325,313.8516)"/>
<use xlink:href="#font_1_62" transform="matrix(22.275477,11.137489,11.137489,-22.275477,520.0398,318.23979)"/>
<path transform="matrix(2.7777777,0,0,-2.7777777,607.5361,320.75279)" stroke-width=".3985" stroke-linecap="butt" stroke-miterlimit="10" stroke-linejoin="miter" fill="none" stroke="#000000" d="M -18.04568 18.04568 L 16.63676 -16.63676 "/>
<path transform="matrix(1.9641665,1.9641665,1.9641665,-1.9641665,653.7493,366.96604)" d="M 1.99252 0 L -1.19551 1.59401 L 0 0 L -1.19551 -1.59401 "/>
<use xlink:href="#font_1_4b" transform="matrix(17.611464,17.611464,17.611464,-17.611464,599.7876,298.7904)"/>
<use xlink:href="#font_1_42" transform="matrix(17.611464,17.611464,17.611464,-17.611464,614.05288,313.0557)"/>
<use xlink:href="#font_1_62" transform="matrix(17.611464,17.611464,17.611464,-17.611464,617.36386,316.75413)"/>
<use xlink:href="#font_1_62" transform="matrix(17.611464,17.611464,17.611464,-17.611464,624.30276,323.69306)"/>
<path transform="matrix(2.7777777,0,0,-2.7777777,607.5361,320.75279)" stroke-width=".3985" stroke-linecap="butt" stroke-miterlimit="10" stroke-linejoin="miter" fill="none" stroke="#000000" d="M 37.55963 9.96277 L 37.55963 -7.97023 "/>
<path transform="matrix(0,2.7777777,2.7777777,0,711.8684,342.8923)" d="M 1.99252 0 L -1.19551 1.59401 L 0 0 L -1.19551 -1.59401 "/>
<use xlink:href="#font_1_4b" transform="matrix(0,24.90661,24.90661,0,721.9166,299.74244)"/>
<use xlink:href="#font_1_42" transform="matrix(0,24.90661,24.90661,0,721.9166,319.91679)"/>
<use xlink:href="#font_1_62" transform="matrix(0,24.90661,24.90661,0,721.64266,324.8732)"/>
<use xlink:href="#font_1_62" transform="matrix(0,24.90661,24.90661,0,721.64266,334.68644)"/>
<path transform="matrix(2.7777777,0,0,-2.7777777,607.5361,320.75279)" stroke-width=".3985" stroke-linecap="butt" stroke-miterlimit="10" stroke-linejoin="miter" fill="none" stroke="#000000" d="M 93.16495 18.04568 L 58.48248 -16.63676 "/>
<path transform="matrix(-1.9641665,1.9641665,1.9641665,1.9641665,769.98739,366.96604)" d="M 1.99252 0 L -1.19551 1.59401 L 0 0 L -1.19551 -1.59401 "/>
<use xlink:href="#font_1_4b" transform="matrix(17.611464,-17.611464,-17.611464,-17.611464,794.23489,328.50135)"/>
<use xlink:href="#font_1_42" transform="matrix(17.611464,-17.611464,-17.611464,-17.611464,808.5002,314.23603)"/>
<use xlink:href="#font_1_62" transform="matrix(17.611464,-17.611464,-17.611464,-17.611464,812.1986,310.92506)"/>
<use xlink:href="#font_1_62" transform="matrix(17.611464,-17.611464,-17.611464,-17.611464,819.13748,303.98616)"/>
<path transform="matrix(2.7777777,0,0,-2.7777777,607.5361,320.75279)" stroke-width=".3985" stroke-linecap="butt" stroke-miterlimit="10" stroke-linejoin="miter" fill="none" stroke="#000000" d="M 10.5245 -43.09154 C -62.20953 -57.97575 -120.23254 -38.63478 -168.16791 15.42181 "/>
<path transform="matrix(-1.8428888,-2.0781944,-2.0781944,1.8428888,140.40302,277.91444)" d="M 1.99252 0 L -1.19551 1.59401 L 0 0 L -1.19551 -1.59401 "/>
</g>
</svg>
