<?xml version="1.0" encoding="UTF-8" standalone="no"?>
<svg
   xmlns:dc="http://purl.org/dc/elements/1.1/"
   xmlns:cc="http://creativecommons.org/ns#"
   xmlns:rdf="http://www.w3.org/1999/02/22-rdf-syntax-ns#"
   xmlns:svg="http://www.w3.org/2000/svg"
   xmlns="http://www.w3.org/2000/svg"
   xmlns:sodipodi="http://sodipodi.sourceforge.net/DTD/sodipodi-0.dtd"
   xmlns:inkscape="http://www.inkscape.org/namespaces/inkscape"
   width="30"
   height="30"
   version="1.1"
   id="svg4158"
   inkscape:version="0.91 r13725"
   sodipodi:docname="Extensions.svg">
  <metadata
     id="metadata4170">
    <rdf:RDF>
      <cc:Work
         rdf:about="">
        <dc:format>image/svg+xml</dc:format>
        <dc:type
           rdf:resource="http://purl.org/dc/dcmitype/StillImage" />
        <dc:title />
      </cc:Work>
    </rdf:RDF>
  </metadata>
  <defs
     id="defs4168">
    <clipPath
       id="cp0">
      <path
         inkscape:connector-curvature="0"
         transform="matrix(2.7777777,0,0,-2.7777777,0,400.4833)"
         d="m 0,144.174 147.885,0 L 147.885,0 0,0 Z"
         id="path4142" />
    </clipPath>
    <clipPath
       id="clipPath4724">
      <path
         inkscape:connector-curvature="0"
         transform="matrix(2.7777777,0,0,-2.7777777,0,400.4833)"
         d="m 0,144.174 147.885,0 L 147.885,0 0,0 Z"
         id="path4726" />
    </clipPath>
  </defs>
  <sodipodi:namedview
     pagecolor="#ffffff"
     bordercolor="#666666"
     borderopacity="1"
     objecttolerance="10"
     gridtolerance="10"
     guidetolerance="10"
     inkscape:pageopacity="0"
     inkscape:pageshadow="2"
     inkscape:window-width="2048"
     inkscape:window-height="1089"
     id="namedview4166"
     showgrid="false"
     inkscape:zoom="11.125147"
     inkscape:cx="27.252169"
     inkscape:cy="12.317466"
     inkscape:window-x="2040"
     inkscape:window-y="-8"
     inkscape:window-maximized="1"
     inkscape:current-layer="g4144" />
  <g
     clip-path="url(#cp0)"
     id="g4144"
     transform="matrix(0.06764854,0,0,0.06764854,1.2321594,0.9470034)">
    <g
       id="g4166">
      <path
         id="path4148"
         d="m 291.1773,114.02331 c 13.50319,0 25.72917,5.47306 34.58,14.31861 L 360.32938,93.772477 C 342.63035,76.07345 318.18369,65.132617 291.1773,65.132617 c -54.0075,0 -97.7893,43.779163 -97.7893,97.781383 l 0,48.89333 20.25083,20.25348 c -6.01139,6.00611 -12.85139,11.15986 -20.25083,15.45333 l 0,102.8243 48.89333,0 0,-48.89333 c 0,-27.00111 21.89222,-48.89597 48.89597,-48.89597 l 21.19292,0 0,-40.74181 -21.19292,0 c -27.00375,0 -48.89597,-21.88958 -48.89597,-48.89333 0,-27.00111 21.89222,-48.89069 48.89597,-48.89069"
         inkscape:connector-curvature="0" />
      <path
         id="path4150"
         d="m 179.06965,197.48846 c -8.85083,8.84556 -21.07417,14.31861 -34.57472,14.31861 -26.99847,0 -48.890694,-21.88958 -48.890694,-48.89333 0,-27.00111 21.892224,-48.89069 48.890694,-48.89069 13.50055,0 25.72389,5.47305 34.57472,14.31861 l 34.56944,-34.569447 c -17.69375,-17.699027 -42.13513,-28.63986 -69.14416,-28.63986 -54.00486,0 -97.784026,43.779167 -97.784026,97.781387 0,54.00486 43.779166,97.7893 97.784026,97.7893 17.83361,0 34.49819,-4.85555 48.89333,-13.18917 7.39944,-4.29347 14.23944,-9.44722 20.25083,-15.45069 l -20.25083,-20.25611 z"
         inkscape:connector-curvature="0" />
    </g>
  </g>
</svg>
